<?xml version="1.0" encoding="UTF-8"?>
<svg width="24px" height="40px" viewBox="0 0 24 40" version="1.1" xmlns="http://www.w3.org/2000/svg" xmlns:xlink="http://www.w3.org/1999/xlink">
    <title>ic_microphone_on</title>
    <g id="Symbols" stroke="none" stroke-width="1" fill="none" fill-rule="evenodd">
        <g id="ic_actions" transform="translate(-224.000000, -31.000000)">
            <g id="ic_microphone_on" transform="translate(196.000000, 11.000000)">
                <rect id="bg" x="0" y="0" width="80" height="80" rx="40"></rect>
                <path d="M50.6666667,38.6666667 C51.4030463,38.6666667 52,39.2636203 52,40 C52,46.17642 47.3337481,51.2629785 41.3342606,51.9266591 L41.3333333,57.3333333 L49.3333333,57.3333333 C50.069713,57.3333333 50.6666667,57.930287 50.6666667,58.6666667 C50.6666667,59.4030463 50.069713,60 49.3333333,60 L30.6666667,60 C29.930287,60 29.3333333,59.4030463 29.3333333,58.6666667 C29.3333333,57.930287 29.930287,57.3333333 30.6666667,57.3333333 L38.6666667,57.3333333 L38.6670709,51.9268063 C32.6669423,51.2637311 28,46.1768769 28,40 C28,39.2636203 28.5969537,38.6666667 29.3333333,38.6666667 C30.069713,38.6666667 30.6666667,39.2636203 30.6666667,40 C30.6666667,45.1546577 34.8453423,49.3333333 40,49.3333333 C45.1546577,49.3333333 49.3333333,45.1546577 49.3333333,40 C49.3333333,39.2636203 49.930287,38.6666667 50.6666667,38.6666667 Z M40,20 C43.6818983,20 46.6666667,22.9847683 46.6666667,26.6666667 L46.6666667,40 C46.6666667,43.6818983 43.6818983,46.6666667 40,46.6666667 C36.3181017,46.6666667 33.3333333,43.6818983 33.3333333,40 L33.3333333,26.6666667 C33.3333333,22.9847683 36.3181017,20 40,20 Z" id="Shape" fill="#FFFFFF"></path>
            </g>
        </g>
    </g>
</svg>