<?xml version="1.0" encoding="UTF-8"?>
<svg width="41px" height="34px" viewBox="0 0 41 34" version="1.1" xmlns="http://www.w3.org/2000/svg" xmlns:xlink="http://www.w3.org/1999/xlink">
    <title>ic_flip_camera</title>
    <g id="Symbols" stroke="none" stroke-width="1" fill="none" fill-rule="evenodd">
        <g id="ic_actions" transform="translate(-36.000000, -33.000000)" fill="#FFFFFF">
            <g id="ic_flip_camera" transform="translate(16.000000, 10.000000)">
                <path d="M45.314302,23 C47.06,23 48.639156,23.9994493 49.339026,25.545928 L50.75,28.6667327 L55.14315,28.6667327 C58.378296,28.6667327 61,31.2033386 61,34.3333861 L61,51.3333462 C61,54.4634334 58.378255,57 55.14315,57 L25.85685,57 C22.6217041,57 20,54.4633937 20,51.3333462 L20,34.3333861 C20,31.2032989 22.6217451,28.6667327 25.85685,28.6667327 L30.250164,28.6667327 L31.661138,25.545928 C32.361008,23.999489 33.940164,23 35.685862,23 L45.314302,23 Z M32.2144357,37.7824281 L29.152352,41.4553408 C29.0535741,41.5743555 29,41.7204906 29,41.868126 C29,42.2492783 29.3432088,42.5581325 29.7651245,42.5581325 L31.2970021,42.5581325 C31.2970021,43.9878202 31.7071785,45.4129954 32.5258643,46.6890698 C33.7831851,48.6505611 35.7587423,49.9989105 38.1194333,50.5442898 C40.4448939,51.0806059 42.9762507,50.8034154 45.0724997,49.7142071 C45.8041082,49.3345589 46.0552638,48.4923969 45.6333567,47.8325499 C45.2097867,47.1742071 44.2739022,46.9482031 43.5422937,47.3293631 C42.1543805,48.0494907 40.446694,48.2363104 38.8796289,47.8747425 C37.3176213,47.5146826 36.0234414,46.631836 35.1779986,45.3121421 C34.6322281,44.4624672 34.3576285,43.5118233 34.3593,42.5582097 L35.8876031,42.5581248 L35.8876031,42.5581248 C36.0533487,42.5581248 36.2140711,42.5084078 36.3463264,42.4195219 C36.6845121,42.1920368 36.7531555,41.7596749 36.5003542,41.4553408 L33.4382705,37.7824281 C33.3947426,37.729699 33.3445158,37.684502 33.2859185,37.6453331 C32.9477328,37.4163401 32.4672199,37.4781094 32.2144357,37.7824281 Z M35.9900626,34.1153236 C35.2584541,34.4949719 35.0072985,35.3371339 35.4308771,35.9954767 C35.8527756,36.6553236 36.7886602,36.8813277 37.5202687,36.5001676 C38.965099,35.7499191 40.6024533,35.5661076 42.1593608,35.9487717 C43.7180254,36.3314321 45.0707939,37.248912 45.8844351,38.5174272 C46.415162,39.3445017 46.6897188,40.2589695 46.7064768,41.1794539 L45.0723969,41.1796545 C44.9066513,41.1796545 44.7459289,41.2278635 44.6136736,41.3182574 C44.2754879,41.5457424 44.2068445,41.9781043 44.4596458,42.2824384 L47.5217295,45.9553511 C47.5652574,46.0065723 47.6154842,46.0532772 47.6740815,46.0924461 C48.0122672,46.3214391 48.4927801,46.2596698 48.7455643,45.9553511 L51.807648,42.2824384 C51.9064259,42.1634238 51.96,42.0172887 51.96,41.8681491 C51.96,41.4885009 51.6167912,41.1796467 51.1948755,41.1796467 L49.7668032,41.1796467 C49.7517339,39.7815842 49.3398859,38.3925465 48.5362695,37.1389568 C47.3124218,35.2331951 45.2916908,33.8622454 42.9662731,33.2912574 C40.6257688,32.715757 38.1463147,32.9944709 35.9900626,34.1153236 Z" id="icon"></path>
            </g>
        </g>
    </g>
</svg>