<?xml version="1.0" encoding="UTF-8"?>
<svg width="42px" height="29px" viewBox="0 0 42 29" version="1.1" xmlns="http://www.w3.org/2000/svg" xmlns:xlink="http://www.w3.org/1999/xlink">
    <title>ic_video_on</title>
    <g id="Symbols" stroke="none" stroke-width="1" fill="none" fill-rule="evenodd">
        <g id="ic_actions" transform="translate(-128.000000, -37.000000)">
            <g id="ic_video_on" transform="translate(106.000000, 10.000000)">
                <rect id="bg" x="0" y="0" width="80" height="80" rx="40"></rect>
                <path d="M46.1739604,27 C48.3015913,27 50.0417941,28.7405252 50.0417941,30.8678337 L50.0417941,51.4962799 C50.0417941,53.6235884 48.3015913,55.3641136 46.1739604,55.3641136 L25.8678337,55.3641136 C23.7405252,55.3641136 22,53.6235884 22,51.4962799 L22,30.8678337 C22,28.7405252 23.7405252,27 25.8678337,27 L46.1739604,27 Z M59.395344,32.446071 C61.4420727,31.2644478 64,32.7416379 64,35.104562 L64,35.104562 L64,47.2595516 C64,49.6224756 61.4420727,51.0993435 59.395344,49.9180426 L59.395344,49.9180426 L54.1486276,46.8888842 C52.5786095,45.9821995 51.6113288,44.3067829 51.6113288,42.4937359 L51.6113288,42.4937359 L51.6113288,39.8703777 C51.6113288,38.0573307 52.5786095,36.381914 54.1486276,35.4755517 L54.1486276,35.4755517 Z" id="Combined-Shape" fill="#F3F3F4"></path>
            </g>
        </g>
    </g>
</svg>