<?xml version="1.0" encoding="UTF-8"?>
<svg width="435px" height="418px" viewBox="0 0 435 418" version="1.1" xmlns="http://www.w3.org/2000/svg" xmlns:xlink="http://www.w3.org/1999/xlink">
    <title>Group 3</title>
    <defs>
        <path d="M196.005233,268.026079 L109.257075,312.994264 C95.2061996,320.363468 85.9888584,313.699155 88.670775,298.079918 L105.050034,202.824466 L35.6630468,135.349675 C24.3101205,124.312066 27.8105068,113.498746 43.5316191,111.223926 L139.396572,97.3188524 L182.28915,10.6510322 C189.306366,-3.54234587 200.691768,-3.55834002 207.725016,10.6510322 L250.601151,97.3188524 L346.466104,111.223926 C362.170773,113.498746 365.703635,124.296072 354.334676,135.349675 L284.964132,202.824466 L301.327359,298.079918 C304.025102,313.683243 294.807966,320.379463 280.757091,312.994264 L196.005233,268.026079 Z" id="path-1"></path>
        <filter x="-22.6%" y="-23.7%" width="145.2%" height="147.5%" filterUnits="objectBoundingBox" id="filter-2">
            <feOffset dx="0" dy="0" in="SourceAlpha" result="shadowOffsetOuter1"></feOffset>
            <feGaussianBlur stdDeviation="25" in="shadowOffsetOuter1" result="shadowBlurOuter1"></feGaussianBlur>
            <feColorMatrix values="0 0 0 0 1   0 0 0 0 0.816277244   0 0 0 0 0.229020579  0 0 0 1 0" type="matrix" in="shadowBlurOuter1"></feColorMatrix>
        </filter>
        <path d="M192.005233,269.026079 L106.257075,313.994264 C92.2061996,321.363468 82.9888584,314.699155 85.670775,299.079918 L102.050034,203.824466 L32.6630468,136.349675 C21.3101205,125.312066 24.8105068,114.498746 40.5316191,112.223926 L136.396572,98.3188524 L179.28915,11.6510322 C186.306366,-2.54234587 197.691768,-2.55834002 204.725016,11.6510322 L247.601151,98.3188524 L343.466104,112.223926 C359.170773,114.498746 362.703635,125.296072 351.334676,136.349675 L281.964132,203.824466 L298.327359,299.079918 C301.025102,314.683243 291.807966,321.379463 277.757091,313.994264 L192.005233,269.026079 Z" id="path-3"></path>
        <filter x="-22.6%" y="-23.7%" width="145.2%" height="147.5%" filterUnits="objectBoundingBox" id="filter-4">
            <feOffset dx="0" dy="0" in="SourceAlpha" result="shadowOffsetOuter1"></feOffset>
            <feGaussianBlur stdDeviation="25" in="shadowOffsetOuter1" result="shadowBlurOuter1"></feGaussianBlur>
            <feColorMatrix values="0 0 0 0 1   0 0 0 0 0.816277244   0 0 0 0 0.229020579  0 0 0 1 0" type="matrix" in="shadowBlurOuter1"></feColorMatrix>
        </filter>
    </defs>
    <g id="Student---Gamification---1" stroke="none" stroke-width="1" fill="none" fill-rule="evenodd">
        <g id="Stars-1-Joined-1" transform="translate(-169.000000, -286.000000)">
            <g id="Group-3" transform="translate(193.000000, 336.456140)">
                <g id="Fill-1-Copy" fill="black" fill-opacity="1">
                    <use filter="url(#filter-2)" xlink:href="#path-1"></use>
                </g>
                <g id="Fill-1">
                    <use fill="black" fill-opacity="1" filter="url(#filter-4)" xlink:href="#path-3"></use>
                    <use fill="#FDC512" fill-rule="evenodd" xlink:href="#path-3"></use>
                </g>
            </g>
        </g>
    </g>
</svg>